<?xml version="1.0" encoding="UTF-8"?>
<mxfile host="app.diagrams.net" modified="10-microservices-communicate-via-grpc" agent="PlantUML Converter" version="1.0" etag="plantuml-diagram" type="device">
  <diagram id="plantuml-10-microservices-communicate-via-grpc" name="10-microservices-communicate-via-grpc">
    <mxGraphModel dx="1422" dy="794" grid="1" gridSize="10" guides="1" tooltips="1" connect="1" arrows="1" fold="1" page="1" pageScale="1" pageWidth="827" pageHeight="1169" math="0" shadow="0">
      <root>
        <mxCell id="0" />
        <mxCell id="1" parent="0" />
        <mxCell id="plantuml-container" value="" style="shape=image;html=1;verticalAlign=top;verticalLabelPosition=bottom;labelBackgroundColor=#ffffff;imageAspect=0;aspect=fixed;image=data:image/svg+xml,PHN2ZyB4bWxucz0iaHR0cDovL3d3dy53My5vcmcvMjAwMC9zdmciIHdpZHRoPSI0MDAiIGhlaWdodD0iMzAwIiB2aWV3Qm94PSIwIDAgNDAwIDMwMCI+CiAgPHJlY3Qgd2lkdGg9IjQwMCIgaGVpZ2h0PSIzMDAiIGZpbGw9IiNmOGY5ZmEiIHN0cm9rZT0iI2RlZTJlNiIvPgogIDx0ZXh0IHg9IjIwMCIgeT0iMTUwIiB0ZXh0LWFuY2hvcj0ibWlkZGxlIiBmb250LWZhbWlseT0iQXJpYWwiIGZvbnQtc2l6ZT0iMTQiIGZpbGw9IiM2Yzc1N2QiPgogICAgRGlhZ3JhbWEgUGxhbnRVTUw6IDEwLW1pY3Jvc2VydmljZXMtY29tbXVuaWNhdGUtdmlhLWdycGMKICA8L3RleHQ+CiAgPHRleHQgeD0iMjAwIiB5PSIxNzAiIHRleHQtYW5jaG9yPSJtaWRkbGUiIGZvbnQtZmFtaWx5PSJBcmlhbCIgZm9udC1zaXplPSIxMiIgZmlsbD0iIzZjNzU3ZCI+CiAgICAoU1ZHIG7Do28gZGlzcG9uw612ZWwgLSB1c2UgbyBjw7NkaWdvIFBsYW50VU1MIGluY29ycG9yYWRvKQogIDwvdGV4dD4KPC9zdmc+;plantuml=QHN0YXJ0dW1sCnBhcnRpY2lwYW50ICJPcmRlciBTZXJ2aWNlIiBhcyBPcmRlclNlcnZpY2UKcGFydGljaXBhbnQgIkludmVudG9yeSBTZXJ2aWNlIiBhcyBJbnZlbnRvcnlTZXJ2aWNlCgpPcmRlclNlcnZpY2UgLT4gSW52ZW50b3J5U2VydmljZSA6IENoZWNrQXZhaWxhYmlsaXR5KHByb2R1Y3RJZClcbnZpYSBnUlBDCmFjdGl2YXRlIEludmVudG9yeVNlcnZpY2UKCkludmVudG9yeVNlcnZpY2UgLT4gSW52ZW50b3J5U2VydmljZSA6IGxvb2t1cFN0b2NrKHByb2R1Y3RJZCkKSW52ZW50b3J5U2VydmljZSAtLT4gT3JkZXJTZXJ2aWNlIDogeyBhdmFpbGFibGU6IHRydWUsXG4gIHF1YW50aXR5OiA0MiB9CmRlYWN0aXZhdGUgSW52ZW50b3J5U2VydmljZQpAZW5kdW1sCg==;" vertex="1" parent="1">
          <mxGeometry x="40" y="40" width="400" height="300" as="geometry" />
        </mxCell>
      </root>
    </mxGraphModel>
  </diagram>
</mxfile>